<?xml version="1.0" encoding="utf-8"?>
<!-- Generator: Adobe Illustrator 19.1.0, SVG Export Plug-In . SVG Version: 6.00 Build 0)  -->
<!DOCTYPE svg PUBLIC "-//W3C//DTD SVG 1.1//EN" "http://www.w3.org/Graphics/SVG/1.1/DTD/svg11.dtd">
<svg version="1.1" id="Layer_1" xmlns="http://www.w3.org/2000/svg" xmlns:xlink="http://www.w3.org/1999/xlink" x="0px" y="0px"
	 width="39.7px" height="34px" viewBox="0 0 39.7 34" style="enable-background:new 0 0 39.7 34;" xml:space="preserve">
<style type="text/css">
	.st0{fill:#879186;}
	.st1{fill:#EFF7F4;}
</style>
<g>
	<g>
		<path class="st0" d="M27.8,5.7C27.8,5.7,27.8,5.7,27.8,5.7c-2.1,0-4.7,0.9-7.4,2.6c-2.7-1.7-5.3-2.6-7.4-2.6h0
			c-1.3,0-2.4,0.4-3.2,1.2c-1.4,1.4-1.5,4-0.4,7c-2.6,0.9-4.1,2.2-4.1,3.6c0,1.4,1.6,2.7,4.1,3.6c-1.1,2.9-1.1,5.5,0.4,7
			c0.8,0.8,1.9,1.2,3.2,1.2c2.1,0,4.7-0.9,7.4-2.6c2.7,1.7,5.3,2.6,7.4,2.6c1.3,0,2.4-0.4,3.2-1.2c1.4-1.4,1.5-4,0.4-7
			c2.6-0.9,4.1-2.2,4.1-3.6c0-1.4-1.6-2.7-4.1-3.6c1.1-2.9,1.1-5.5-0.4-7C30.2,6,29.1,5.7,27.8,5.7z M27.8,7c1,0,1.8,0.3,2.3,0.8
			c1,1,1,2.9,0.2,5.3c0,0.1-0.1,0.2-0.1,0.3c-1.3-0.4-2.9-0.7-4.5-0.9c0,0-0.1-0.1-0.1-0.1c-1.2-1.2-2.5-2.3-3.8-3.3
			c0.3-0.2,0.6-0.3,0.8-0.5C24.4,7.6,26.3,7,27.8,7L27.8,7z M13,7c1.5,0,3.3,0.6,5.3,1.6c0.3,0.1,0.6,0.3,0.8,0.5
			c-1.3,0.9-2.6,2-3.8,3.3c0,0-0.1,0.1-0.1,0.1c-1.7,0.2-3.2,0.5-4.5,0.9c0-0.1-0.1-0.2-0.1-0.3c-0.8-2.4-0.8-4.3,0.2-5.3
			C11.2,7.3,12,7,13,7L13,7z M29.5,14.6c-0.2,0.5-0.5,1-0.8,1.6c-0.5-0.7-1.1-1.4-1.7-2.1C27.9,14.2,28.8,14.4,29.5,14.6z
			 M24.9,21.1c-1.4,0.2-3,0.3-4.5,0.3c-1.6,0-3.1-0.1-4.5-0.3c-1.1-1.2-2.2-2.4-3-3.7c0.8-1.3,1.9-2.5,3-3.7c1.4-0.2,3-0.3,4.5-0.3
			c1.6,0,3.1,0.1,4.5,0.3c1.1,1.2,2.2,2.4,3,3.7C27.1,18.7,26.1,19.9,24.9,21.1z M28.7,18.6c0.3,0.5,0.6,1.1,0.8,1.6
			c-0.8,0.2-1.6,0.4-2.5,0.6C27.6,20.1,28.2,19.4,28.7,18.6z M23.4,22.6c-1,0.9-2,1.7-3,2.4c-1-0.7-2-1.5-3-2.4c1,0.1,2,0.1,3,0.1
			C21.4,22.7,22.4,22.7,23.4,22.6z M13.7,20.8c-0.9-0.2-1.7-0.4-2.5-0.6c0.2-0.5,0.5-1,0.8-1.6C12.6,19.4,13.1,20.1,13.7,20.8z
			 M20.4,9.9c1,0.7,2,1.5,3,2.4c-1-0.1-2-0.1-3-0.1c-1,0-2,0-3,0.1C18.4,11.4,19.4,10.6,20.4,9.9z M13.7,14
			c-0.6,0.7-1.2,1.4-1.7,2.1c-0.3-0.5-0.6-1.1-0.8-1.6C12,14.4,12.9,14.2,13.7,14z M6.6,17.4c0-0.4,0.4-0.8,0.7-1
			c0.6-0.5,1.5-1,2.6-1.4c0.4,0.8,0.8,1.6,1.3,2.4c-0.5,0.8-0.9,1.6-1.3,2.4C7.7,19,6.6,18,6.6,17.4z M18.3,26.2
			c-1.9,1-3.8,1.6-5.3,1.6c-1,0-1.8-0.3-2.3-0.8c-1-1-1-2.9-0.2-5.3c0-0.1,0.1-0.2,0.1-0.3c1.3,0.4,2.9,0.7,4.5,0.9
			c0,0,0.1,0.1,0.1,0.1c1.2,1.2,2.5,2.3,3.8,3.3C18.9,25.9,18.6,26.1,18.3,26.2z M30.2,21.8C31,24.2,31,26.1,30,27
			c-0.5,0.5-1.3,0.8-2.3,0.8c-1.5,0-3.3-0.6-5.3-1.6c-0.3-0.1-0.6-0.3-0.8-0.5c1.3-0.9,2.6-2,3.8-3.3c0,0,0.1-0.1,0.1-0.1
			c1.7-0.2,3.2-0.5,4.5-0.9C30.1,21.6,30.1,21.7,30.2,21.8z M33.4,18.4c-0.6,0.5-1.5,1-2.6,1.4c-0.4-0.8-0.8-1.6-1.3-2.4
			c0.5-0.8,0.9-1.6,1.3-2.4c2.3,0.8,3.3,1.8,3.3,2.4C34.1,17.8,33.7,18.2,33.4,18.4z"/>
	</g>
	<g>
		<path class="st1" d="M26.7,4.9C26.7,4.9,26.7,4.9,26.7,4.9c-2.1,0-4.7,0.9-7.4,2.6c-2.7-1.7-5.3-2.6-7.4-2.6h0
			c-1.3,0-2.4,0.4-3.2,1.2c-1.4,1.4-1.5,4-0.4,7c-2.6,0.9-4.1,2.2-4.1,3.6s1.6,2.7,4.1,3.6c-1.1,2.9-1.1,5.5,0.4,7
			c0.8,0.8,1.9,1.2,3.2,1.2c2.1,0,4.7-0.9,7.4-2.6c2.7,1.7,5.3,2.6,7.4,2.6c1.3,0,2.4-0.4,3.2-1.2c1.4-1.4,1.5-4,0.4-7
			c2.6-0.9,4.1-2.2,4.1-3.6s-1.6-2.7-4.1-3.6c1.1-2.9,1.1-5.5-0.4-7C29.1,5.2,28,4.9,26.7,4.9z M26.7,6.2c1,0,1.8,0.3,2.3,0.8
			c1,1,1,2.9,0.2,5.3c0,0.1-0.1,0.2-0.1,0.3c-1.3-0.4-2.9-0.7-4.5-0.9c0,0-0.1-0.1-0.1-0.1c-1.2-1.2-2.5-2.3-3.8-3.3
			c0.3-0.2,0.6-0.3,0.8-0.5C23.3,6.8,25.2,6.2,26.7,6.2L26.7,6.2z M11.9,6.2c1.5,0,3.3,0.6,5.3,1.6c0.3,0.1,0.6,0.3,0.8,0.5
			c-1.3,0.9-2.6,2-3.8,3.3c0,0-0.1,0.1-0.1,0.1c-1.7,0.2-3.2,0.5-4.5,0.9c0-0.1-0.1-0.2-0.1-0.3C8.7,9.8,8.7,7.9,9.7,7
			C10.2,6.5,10.9,6.2,11.9,6.2L11.9,6.2z M28.5,13.8c-0.2,0.5-0.5,1-0.8,1.6c-0.5-0.7-1.1-1.4-1.7-2.1
			C26.8,13.4,27.7,13.6,28.5,13.8z M23.8,20.3c-1.4,0.2-3,0.3-4.5,0.3c-1.6,0-3.1-0.1-4.5-0.3c-1.1-1.2-2.2-2.4-3-3.7
			c0.8-1.3,1.9-2.5,3-3.7c1.4-0.2,3-0.3,4.5-0.3s3.1,0.1,4.5,0.3c1.1,1.2,2.2,2.4,3,3.7C26,17.9,25,19.1,23.8,20.3z M27.6,17.8
			c0.3,0.5,0.6,1.1,0.8,1.6c-0.8,0.2-1.6,0.4-2.5,0.6C26.6,19.3,27.1,18.6,27.6,17.8z M22.3,21.8c-1,0.9-2,1.7-3,2.4
			c-1-0.7-2-1.5-3-2.4c1,0.1,2,0.1,3,0.1C20.3,21.9,21.3,21.8,22.3,21.8z M12.7,20c-0.9-0.2-1.7-0.4-2.5-0.6c0.2-0.5,0.5-1,0.8-1.6
			C11.5,18.6,12.1,19.3,12.7,20z M19.3,9.1c1,0.7,2,1.5,3,2.4c-1-0.1-2-0.1-3-0.1c-1,0-2,0-3,0.1C17.3,10.6,18.3,9.8,19.3,9.1z
			 M12.7,13.2c-0.6,0.7-1.2,1.4-1.7,2.1c-0.3-0.5-0.6-1.1-0.8-1.6C10.9,13.6,11.8,13.4,12.7,13.2z M5.6,16.6c0-0.4,0.4-0.8,0.7-1
			c0.6-0.5,1.5-1,2.6-1.4c0.4,0.8,0.8,1.6,1.3,2.4c-0.5,0.8-0.9,1.6-1.3,2.4C6.6,18.2,5.6,17.2,5.6,16.6z M17.2,25.4
			c-1.9,1-3.8,1.6-5.3,1.6c-1,0-1.8-0.3-2.3-0.8c-1-1-1-2.9-0.2-5.3c0-0.1,0.1-0.2,0.1-0.3c1.3,0.4,2.9,0.7,4.5,0.9
			c0,0,0.1,0.1,0.1,0.1c1.2,1.2,2.5,2.3,3.8,3.3C17.8,25.1,17.5,25.2,17.2,25.4z M29.1,21c0.8,2.4,0.8,4.3-0.2,5.3
			c-0.5,0.5-1.3,0.8-2.3,0.8c-1.5,0-3.3-0.6-5.3-1.6c-0.3-0.1-0.6-0.3-0.8-0.5c1.3-0.9,2.6-2,3.8-3.3c0,0,0.1-0.1,0.1-0.1
			c1.7-0.2,3.2-0.5,4.5-0.9C29,20.8,29.1,20.9,29.1,21z M32.3,17.6c-0.6,0.5-1.5,1-2.6,1.4c-0.4-0.8-0.8-1.6-1.3-2.4
			c0.5-0.8,0.9-1.6,1.3-2.4C32,15,33,16,33,16.6C33,17,32.6,17.4,32.3,17.6z"/>
	</g>
</g>
</svg>
