<?xml version="1.0" encoding="utf-8"?>
<!-- Generator: Adobe Illustrator 19.1.0, SVG Export Plug-In . SVG Version: 6.00 Build 0)  -->
<!DOCTYPE svg PUBLIC "-//W3C//DTD SVG 1.1//EN" "http://www.w3.org/Graphics/SVG/1.1/DTD/svg11.dtd">
<svg version="1.1" id="Layer_1" xmlns="http://www.w3.org/2000/svg" xmlns:xlink="http://www.w3.org/1999/xlink" x="0px" y="0px"
	 width="170.1px" height="34px" viewBox="0 0 170.1 34" style="enable-background:new 0 0 170.1 34;" xml:space="preserve">
<style type="text/css">
	.st0{fill:#859186;}
	.st1{fill:#FFFFFF;}
	.st2{fill:#B8C3B7;}
	.st3{fill:#879186;}
	.st4{fill:#EFF7F4;}
</style>
<g>
	<g>
		<path class="st0" d="M79.5,9.7l7.8,14.6h-7.8h-7.8L79.5,9.7 M79.5,8.5c-0.5,0-0.9,0.2-1.1,0.6l-7.8,14.6c-0.2,0.4-0.2,0.8,0,1.2
			c0.2,0.4,0.6,0.6,1,0.6h7.8h7.8c0.4,0,0.8-0.2,1-0.6c0.2-0.4,0.2-0.8,0-1.2L80.5,9.1C80.3,8.7,79.9,8.5,79.5,8.5L79.5,8.5z"/>
		<path class="st0" d="M74.4,9.7l-7.8,14.6L58.8,9.7h7.8H74.4 M74.4,8.5h-7.8h-7.8c-0.4,0-0.8,0.2-1,0.6c-0.2,0.4-0.2,0.8,0,1.2
			l7.8,14.6c0.2,0.4,0.6,0.6,1.1,0.6c0.5,0,0.9-0.2,1.1-0.6l7.8-14.6c0.2-0.4,0.2-0.8,0-1.2C75.2,8.7,74.8,8.5,74.4,8.5L74.4,8.5z"
			/>
		<path class="st0" d="M139.9,9.7l-7.8,14.6l-7.8-14.6h7.8H139.9 M139.9,8.5h-7.8h-7.8c-0.4,0-0.8,0.2-1,0.6c-0.2,0.4-0.2,0.8,0,1.2
			l7.8,14.6c0.2,0.4,0.6,0.6,1.1,0.6s0.9-0.2,1.1-0.6l7.8-14.6c0.2-0.4,0.2-0.8,0-1.2C140.7,8.7,140.3,8.5,139.9,8.5L139.9,8.5z"/>
		<path class="st0" d="M90.8,9.7l7.8,14.6h-7.8V9.7 M90.8,8.5c-0.1,0-0.2,0-0.3,0c-0.5,0.1-0.9,0.6-0.9,1.2v14.6
			c0,0.7,0.5,1.2,1.2,1.2h7.8c0.4,0,0.8-0.2,1-0.6c0.2-0.4,0.2-0.8,0-1.2L91.9,9.1C91.7,8.7,91.2,8.5,90.8,8.5L90.8,8.5z"/>
		<path class="st0" d="M101.4,9.7v14.6L93.6,9.7H101.4 M101.4,8.5h-7.8c-0.4,0-0.8,0.2-1,0.6c-0.2,0.4-0.2,0.8,0,1.2l7.8,14.6
			c0.2,0.4,0.6,0.6,1.1,0.6c0.1,0,0.2,0,0.3,0c0.5-0.1,0.9-0.6,0.9-1.2V9.7C102.6,9,102.1,8.5,101.4,8.5L101.4,8.5z"/>
		<path class="st0" d="M152.6,9.7l7.8,14.6h-7.8v0h-7.8H137l7.8-14.6l3.9,7.3L152.6,9.7 M152.6,8.5c-0.5,0-0.9,0.2-1.1,0.6l-2.8,5.3
			l-2.8-5.3c-0.2-0.4-0.6-0.6-1.1-0.6c-0.5,0-0.9,0.2-1.1,0.6l-7.8,14.6c-0.2,0.4-0.2,0.8,0,1.2c0.2,0.4,0.6,0.6,1,0.6h7.8h7.8
			l7.8,0c0.4,0,0.8-0.2,1-0.6c0.2-0.4,0.2-0.8,0-1.2l-7.8-14.6C153.4,8.7,153,8.5,152.6,8.5L152.6,8.5z"/>
		<path class="st0" d="M51.9,9.7l6.7,7.3l-2.8,3.1l2.3,4.2h-3.6v-2.7l-2.5,2.7L45.2,17L51.9,9.7 M51.9,20.2l3-3.2l-3-3.2L49,17
			L51.9,20.2 M51.9,8.5c-0.3,0-0.7,0.1-0.9,0.4l-6.7,7.3c-0.4,0.5-0.4,1.2,0,1.7l6.7,7.3c0.2,0.3,0.6,0.4,0.9,0.4l0,0
			c0.3,0,0.7-0.1,0.9-0.4l0.4-0.5c0.1,0.5,0.6,0.9,1.2,0.9h3.6c0.4,0,0.8-0.2,1-0.6c0.2-0.4,0.2-0.8,0-1.2l-1.8-3.5l2.2-2.4
			c0.4-0.5,0.4-1.2,0-1.7l-6.7-7.3C52.6,8.6,52.3,8.5,51.9,8.5L51.9,8.5z M50.6,17l1.3-1.4l1.3,1.4l-1.3,1.4L50.6,17L50.6,17z"/>
		<path class="st0" d="M120.6,9.7v2.9l-6.4-0.9l1.7,12.6h-3.1h-3.1l1.7-12.6l-6.4,0.9V9.7h7.8H120.6 M120.6,8.5h-7.8H105
			c-0.7,0-1.2,0.5-1.2,1.2v2.9c0,0.4,0.2,0.7,0.4,0.9c0.2,0.2,0.5,0.3,0.8,0.3c0.1,0,0.1,0,0.2,0l4.8-0.7l-1.5,11
			c0,0.3,0.1,0.7,0.3,1c0.2,0.3,0.6,0.4,0.9,0.4h3.1h3.1c0.4,0,0.7-0.2,0.9-0.4c0.2-0.3,0.3-0.6,0.3-1l-1.5-11l4.8,0.7
			c0.1,0,0.1,0,0.2,0c0.3,0,0.6-0.1,0.8-0.3c0.3-0.2,0.4-0.6,0.4-0.9V9.7C121.8,9,121.2,8.5,120.6,8.5L120.6,8.5z"/>
	</g>
	<polygon class="st1" points="79.5,9.7 79.5,24.3 71.7,24.3 	"/>
	<polygon class="st2" points="79.5,9.7 79.5,24.3 87.3,24.3 	"/>
	<polygon class="st1" points="66.6,24.3 66.6,9.7 58.8,9.7 	"/>
	<polygon class="st2" points="66.6,24.3 66.6,9.7 74.4,9.7 	"/>
	<polygon class="st1" points="132.1,24.3 132.1,9.7 124.3,9.7 	"/>
	<polygon class="st2" points="132.1,24.3 132.1,9.7 139.9,9.7 	"/>
	<polygon class="st1" points="90.8,9.7 90.8,24.3 98.6,24.3 	"/>
	<polygon class="st2" points="101.4,24.3 101.4,9.7 93.6,9.7 	"/>
	<g>
		<g>
			<polygon class="st1" points="137,24.3 144.8,24.3 144.8,9.7 			"/>
			<polygon class="st1" points="144.8,24.3 152.6,24.3 152.6,9.7 			"/>
		</g>
		<polygon class="st2" points="152.6,9.7 152.6,24.3 160.4,24.3 		"/>
		<polygon class="st2" points="144.8,9.7 144.8,24.3 144.8,24.3 148.7,17 		"/>
	</g>
	<g>
		<polygon class="st2" points="51.9,9.7 51.9,13.8 54.9,17 51.9,20.2 51.9,24.3 58.6,17 		"/>
		<polygon class="st1" points="51.9,9.7 45.2,17 51.9,24.3 51.9,20.2 49,17 51.9,13.8 		"/>
		<polygon class="st1" points="54.4,17.5 54.4,24.3 58.1,24.3 		"/>
	</g>
	<g>
		<polygon class="st2" points="120.6,12.6 120.6,9.7 112.8,9.7 112.8,24.3 115.9,24.3 114.2,11.7 		"/>
		<polygon class="st1" points="105,12.6 105,9.7 112.8,9.7 112.8,24.3 109.7,24.3 111.3,11.7 		"/>
	</g>
</g>
<g>
	<g>
		<path class="st3" d="M32,5.7C32,5.7,32,5.7,32,5.7c-2.1,0-4.7,0.9-7.4,2.6c-2.7-1.7-5.3-2.6-7.4-2.6h0c-1.3,0-2.4,0.4-3.2,1.2
			c-1.4,1.4-1.5,4-0.4,7c-2.6,0.9-4.1,2.2-4.1,3.6c0,1.4,1.6,2.7,4.1,3.6c-1.1,2.9-1.1,5.5,0.4,7c0.8,0.8,1.9,1.2,3.2,1.2
			c2.1,0,4.7-0.9,7.4-2.6c2.7,1.7,5.3,2.6,7.4,2.6c1.3,0,2.4-0.4,3.2-1.2c1.4-1.4,1.5-4,0.4-7c2.6-0.9,4.1-2.2,4.1-3.6
			c0-1.4-1.6-2.7-4.1-3.6c1.1-2.9,1.1-5.5-0.4-7C34.5,6,33.3,5.7,32,5.7z M32,7c1,0,1.8,0.3,2.3,0.8c1,1,1,2.9,0.2,5.3
			c0,0.1-0.1,0.2-0.1,0.3c-1.3-0.4-2.9-0.7-4.5-0.9c0,0-0.1-0.1-0.1-0.1c-1.2-1.2-2.5-2.3-3.8-3.3c0.3-0.2,0.6-0.3,0.8-0.5
			C28.7,7.6,30.6,7,32,7L32,7z M17.3,7c1.5,0,3.3,0.6,5.3,1.6c0.3,0.1,0.6,0.3,0.8,0.5c-1.3,0.9-2.6,2-3.8,3.3c0,0-0.1,0.1-0.1,0.1
			c-1.7,0.2-3.2,0.5-4.5,0.9c0-0.1-0.1-0.2-0.1-0.3C14,10.7,14.1,8.7,15,7.8C15.5,7.3,16.3,7,17.3,7L17.3,7z M33.8,14.6
			c-0.2,0.5-0.5,1-0.8,1.6c-0.5-0.7-1.1-1.4-1.7-2.1C32.2,14.2,33,14.4,33.8,14.6z M29.2,21.1c-1.4,0.2-3,0.3-4.5,0.3
			c-1.6,0-3.1-0.1-4.5-0.3c-1.1-1.2-2.2-2.4-3-3.7c0.8-1.3,1.9-2.5,3-3.7c1.4-0.2,3-0.3,4.5-0.3s3.1,0.1,4.5,0.3
			c1.1,1.2,2.2,2.4,3,3.7C31.3,18.7,30.3,19.9,29.2,21.1z M33,18.6c0.3,0.5,0.6,1.1,0.8,1.6c-0.8,0.2-1.6,0.4-2.5,0.6
			C31.9,20.1,32.5,19.4,33,18.6z M27.6,22.6c-1,0.9-2,1.7-3,2.4c-1-0.7-2-1.5-3-2.4c1,0.1,2,0.1,3,0.1
			C25.7,22.7,26.7,22.7,27.6,22.6z M18,20.8c-0.9-0.2-1.7-0.4-2.5-0.6c0.2-0.5,0.5-1,0.8-1.6C16.8,19.4,17.4,20.1,18,20.8z
			 M24.6,9.9c1,0.7,2,1.5,3,2.4c-1-0.1-2-0.1-3-0.1c-1,0-2,0-3,0.1C22.6,11.4,23.6,10.6,24.6,9.9z M18,14c-0.6,0.7-1.2,1.4-1.7,2.1
			c-0.3-0.5-0.6-1.1-0.8-1.6C16.3,14.4,17.1,14.2,18,14z M10.9,17.4c0-0.4,0.4-0.8,0.7-1c0.6-0.5,1.5-1,2.6-1.4
			c0.4,0.8,0.8,1.6,1.3,2.4c-0.5,0.8-0.9,1.6-1.3,2.4C11.9,19,10.9,18,10.9,17.4z M22.6,26.2c-1.9,1-3.8,1.6-5.3,1.6
			c-1,0-1.8-0.3-2.3-0.8c-1-1-1-2.9-0.2-5.3c0-0.1,0.1-0.2,0.1-0.3c1.3,0.4,2.9,0.7,4.5,0.9c0,0,0.1,0.1,0.1,0.1
			c1.2,1.2,2.5,2.3,3.8,3.3C23.1,25.9,22.8,26.1,22.6,26.2z M34.4,21.8c0.8,2.4,0.8,4.3-0.2,5.3c-0.5,0.5-1.3,0.8-2.3,0.8
			c-1.5,0-3.3-0.6-5.3-1.6c-0.3-0.1-0.6-0.3-0.8-0.5c1.3-0.9,2.6-2,3.8-3.3c0,0,0.1-0.1,0.1-0.1c1.7-0.2,3.2-0.5,4.5-0.9
			C34.4,21.6,34.4,21.7,34.4,21.8z M37.7,18.4c-0.6,0.5-1.5,1-2.6,1.4c-0.4-0.8-0.8-1.6-1.3-2.4c0.5-0.8,0.9-1.6,1.3-2.4
			c2.3,0.8,3.3,1.8,3.3,2.4C38.4,17.8,37.9,18.2,37.7,18.4z"/>
	</g>
	<g>
		<path class="st4" d="M30.9,4.9C30.9,4.9,30.9,4.9,30.9,4.9c-2.1,0-4.7,0.9-7.4,2.6c-2.7-1.7-5.3-2.6-7.4-2.6h0
			c-1.3,0-2.4,0.4-3.2,1.2c-1.4,1.4-1.5,4-0.4,7c-2.6,0.9-4.1,2.2-4.1,3.6s1.6,2.7,4.1,3.6c-1.1,2.9-1.1,5.5,0.4,7
			c0.8,0.8,1.9,1.2,3.2,1.2c2.1,0,4.7-0.9,7.4-2.6c2.7,1.7,5.3,2.6,7.4,2.6c1.3,0,2.4-0.4,3.2-1.2c1.4-1.4,1.5-4,0.4-7
			c2.6-0.9,4.1-2.2,4.1-3.6s-1.6-2.7-4.1-3.6c1.1-2.9,1.1-5.5-0.4-7C33.4,5.2,32.3,4.9,30.9,4.9z M30.9,6.2c1,0,1.8,0.3,2.3,0.8
			c1,1,1,2.9,0.2,5.3c0,0.1-0.1,0.2-0.1,0.3c-1.3-0.4-2.9-0.7-4.5-0.9c0,0-0.1-0.1-0.1-0.1c-1.2-1.2-2.5-2.3-3.8-3.3
			c0.3-0.2,0.6-0.3,0.8-0.5C27.6,6.8,29.5,6.2,30.9,6.2L30.9,6.2z M16.2,6.2c1.5,0,3.3,0.6,5.3,1.6c0.3,0.1,0.6,0.3,0.8,0.5
			c-1.3,0.9-2.6,2-3.8,3.3c0,0-0.1,0.1-0.1,0.1c-1.7,0.2-3.2,0.5-4.5,0.9c0-0.1-0.1-0.2-0.1-0.3C12.9,9.8,13,7.9,13.9,7
			C14.4,6.5,15.2,6.2,16.2,6.2L16.2,6.2z M32.7,13.8c-0.2,0.5-0.5,1-0.8,1.6c-0.5-0.7-1.1-1.4-1.7-2.1
			C31.1,13.4,31.9,13.6,32.7,13.8z M28.1,20.3c-1.4,0.2-3,0.3-4.5,0.3c-1.6,0-3.1-0.1-4.5-0.3c-1.1-1.2-2.2-2.4-3-3.7
			c0.8-1.3,1.9-2.5,3-3.7c1.4-0.2,3-0.3,4.5-0.3s3.1,0.1,4.5,0.3c1.1,1.2,2.2,2.4,3,3.7C30.3,17.9,29.2,19.1,28.1,20.3z M31.9,17.8
			c0.3,0.5,0.6,1.1,0.8,1.6c-0.8,0.2-1.6,0.4-2.5,0.6C30.8,19.3,31.4,18.6,31.9,17.8z M26.6,21.8c-1,0.9-2,1.7-3,2.4
			c-1-0.7-2-1.5-3-2.4c1,0.1,2,0.1,3,0.1C24.6,21.9,25.6,21.8,26.6,21.8z M16.9,20c-0.9-0.2-1.7-0.4-2.5-0.6c0.2-0.5,0.5-1,0.8-1.6
			C15.8,18.6,16.3,19.3,16.9,20z M23.6,9.1c1,0.7,2,1.5,3,2.4c-1-0.1-2-0.1-3-0.1c-1,0-2,0-3,0.1C21.5,10.6,22.6,9.8,23.6,9.1z
			 M16.9,13.2c-0.6,0.7-1.2,1.4-1.7,2.1c-0.3-0.5-0.6-1.1-0.8-1.6C15.2,13.6,16,13.4,16.9,13.2z M9.8,16.6c0-0.4,0.4-0.8,0.7-1
			c0.6-0.5,1.5-1,2.6-1.4c0.4,0.8,0.8,1.6,1.3,2.4c-0.5,0.8-0.9,1.6-1.3,2.4C10.9,18.2,9.8,17.2,9.8,16.6z M21.5,25.4
			c-1.9,1-3.8,1.6-5.3,1.6c-1,0-1.8-0.3-2.3-0.8c-1-1-1-2.9-0.2-5.3c0-0.1,0.1-0.2,0.1-0.3c1.3,0.4,2.9,0.7,4.5,0.9
			c0,0,0.1,0.1,0.1,0.1c1.2,1.2,2.5,2.3,3.8,3.3C22.1,25.1,21.8,25.2,21.5,25.4z M33.4,21c0.8,2.4,0.8,4.3-0.2,5.3
			c-0.5,0.5-1.3,0.8-2.3,0.8c-1.5,0-3.3-0.6-5.3-1.6c-0.3-0.1-0.6-0.3-0.8-0.5c1.3-0.9,2.6-2,3.8-3.3c0,0,0.1-0.1,0.1-0.1
			c1.7-0.2,3.2-0.5,4.5-0.9C33.3,20.8,33.3,20.9,33.4,21z M36.6,17.6c-0.6,0.5-1.5,1-2.6,1.4c-0.4-0.8-0.8-1.6-1.3-2.4
			c0.5-0.8,0.9-1.6,1.3-2.4c2.3,0.8,3.3,1.8,3.3,2.4C37.3,17,36.9,17.4,36.6,17.6z"/>
	</g>
</g>
</svg>
