<?xml version="1.0" encoding="utf-8"?>
<!-- Generator: Adobe Illustrator 19.1.0, SVG Export Plug-In . SVG Version: 6.00 Build 0)  -->
<!DOCTYPE svg PUBLIC "-//W3C//DTD SVG 1.1//EN" "http://www.w3.org/Graphics/SVG/1.1/DTD/svg11.dtd">
<svg version="1.1" id="Layer_1" xmlns="http://www.w3.org/2000/svg" xmlns:xlink="http://www.w3.org/1999/xlink" x="0px" y="0px"
	 width="124.7px" height="34px" viewBox="0 0 124.7 34" style="enable-background:new 0 0 124.7 34;" xml:space="preserve">
<style type="text/css">
	.st0{fill:#FFFFFF;}
</style>
<path class="st0" d="M40.5,9.1c-0.2-0.4-0.6-0.6-1.1-0.6s-0.9,0.2-1.1,0.6l-7.8,14.6c-0.2,0.4-0.2,0.8,0,1.2c0.2,0.4,0.6,0.6,1,0.6
	h7.8h7.8c0.4,0,0.8-0.2,1-0.6c0.2-0.4,0.2-0.8,0-1.2L40.5,9.1z M31.7,24.3l7.8-14.6v14.6H31.7z"/>
<path class="st0" d="M35.5,9.1c-0.2-0.4-0.6-0.6-1-0.6h-7.8h-7.8c-0.4,0-0.8,0.2-1,0.6c-0.2,0.4-0.2,0.8,0,1.2l7.8,14.6
	c0.2,0.4,0.6,0.6,1.1,0.6s0.9-0.2,1.1-0.6l7.8-14.6C35.7,9.9,35.7,9.4,35.5,9.1z M18.8,9.7h7.8h0v14.6L18.8,9.7z"/>
<path class="st0" d="M101,9.1c-0.2-0.4-0.6-0.6-1-0.6h-7.8h-7.8c-0.4,0-0.8,0.2-1,0.6c-0.2,0.4-0.2,0.8,0,1.2L91,24.9
	c0.2,0.4,0.6,0.6,1.1,0.6s0.9-0.2,1.1-0.6l7.8-14.6C101.2,9.9,101.2,9.4,101,9.1z M84.3,9.7h7.8v14.6L84.3,9.7z"/>
<path class="st0" d="M51.5,9.1c-0.2-0.4-0.6-0.6-1.1-0.6c-0.1,0-0.2,0-0.3,0c-0.5,0.1-0.9,0.6-0.9,1.2v14.6c0,0.7,0.5,1.2,1.2,1.2
	h7.8c0.4,0,0.8-0.2,1-0.6c0.2-0.4,0.2-0.8,0-1.2L51.5,9.1z M50.5,24.3V9.7l7.8,14.6H50.5z"/>
<path class="st0" d="M61.7,8.5h-7.8c-0.4,0-0.8,0.2-1,0.6s-0.2,0.8,0,1.2l7.8,14.6c0.2,0.4,0.6,0.6,1.1,0.6c0.1,0,0.2,0,0.3,0
	c0.5-0.1,0.9-0.6,0.9-1.2V9.7C62.9,9,62.3,8.5,61.7,8.5z"/>
<path class="st0" d="M121.4,23.7l-7.8-14.6c-0.2-0.4-0.6-0.6-1.1-0.6s-0.9,0.2-1.1,0.6l-2.8,5.3l-2.8-5.3c-0.2-0.4-0.6-0.6-1.1-0.6
	s-0.9,0.2-1.1,0.6l-7.8,14.6c-0.2,0.4-0.2,0.8,0,1.2c0.2,0.4,0.6,0.6,1,0.6h7.8h7.8h7.8c0.4,0,0.8-0.2,1-0.6
	C121.6,24.6,121.6,24.1,121.4,23.7z M104.8,24.3L104.8,24.3H97l7.8-14.6L104.8,24.3l7.8-14.6v14.6H104.8z"/>
<path class="st0" d="M12.8,8.9c-0.2-0.3-0.6-0.4-0.9-0.4S11.3,8.6,11,8.9l-6.7,7.3c-0.4,0.5-0.4,1.2,0,1.7l6.7,7.3
	c0.2,0.3,0.6,0.4,0.9,0.4s0.7-0.1,0.9-0.4l0.4-0.5c0.1,0.5,0.6,0.9,1.2,0.9h3.6c0.4,0,0.8-0.2,1-0.6c0.2-0.4,0.2-0.8,0-1.2l-1.8-3.5
	l2.2-2.4c0.4-0.5,0.4-1.2,0-1.7L12.8,8.9z M5.2,17l6.7-7.3v4.1L9,17l3,3.2v4.1L5.2,17z M13.2,17l-1.3,1.4L10.6,17l1.3-1.4L13.2,17z
	 M18.1,24.3h-3.6l0-6.8L18.1,24.3z"/>
<path class="st0" d="M80.6,8.5h-7.8H65c-0.7,0-1.2,0.5-1.2,1.2v2.9c0,0.4,0.2,0.7,0.4,0.9c0.2,0.2,0.5,0.3,0.8,0.3
	c0.1,0,0.1,0,0.2,0l4.8-0.7l-1.5,11c0,0.3,0.1,0.7,0.3,1c0.2,0.3,0.6,0.4,0.9,0.4h3.1h3.1c0.4,0,0.7-0.2,0.9-0.4
	c0.2-0.3,0.3-0.6,0.3-1l-1.5-11l4.8,0.7c0.1,0,0.1,0,0.2,0c0.3,0,0.6-0.1,0.8-0.3c0.3-0.2,0.4-0.6,0.4-0.9V9.7
	C81.8,9,81.2,8.5,80.6,8.5z M69.7,24.3l1.7-12.6L65,12.6V9.7h7.8v14.6H69.7z"/>
</svg>
